<?xml version="1.0" standalone="no"?>
<!DOCTYPE svg PUBLIC "-//W3C//DTD SVG 20010904//EN"
 "http://www.w3.org/TR/2001/REC-SVG-20010904/DTD/svg10.dtd">
<svg version="1.0" xmlns="http://www.w3.org/2000/svg"
 width="310.000000pt" height="310.000000pt" viewBox="0 0 310.000000 310.000000"
 preserveAspectRatio="xMidYMid meet">
<metadata>
Created by potrace 1.11, written by Peter Selinger 2001-2013
</metadata>
<g transform="translate(0.000000,310.000000) scale(0.100000,-0.100000)"
fill="#000000" stroke="none">
<path d="M80 1601 l0 -711 199 0 199 0 0 213 0 212 88 0 88 0 128 -190 c70
-104 135 -200 145 -213 18 -22 20 -22 245 -20 l226 3 -82 117 c-44 65 -120
175 -169 245 l-87 127 55 30 c151 81 235 227 235 411 1 250 -135 408 -405 471
-16 4 -218 9 -447 11 l-418 4 0 -710z m793 336 c110 -65 104 -227 -10 -283
-32 -16 -66 -20 -210 -22 l-173 -3 -1 40 c0 23 0 91 0 151 0 61 0 119 0 131 1
21 4 21 174 17 168 -3 173 -4 220 -31z"/>
<path d="M1510 1600 l0 -710 195 0 195 0 2 402 3 402 120 -183 c66 -100 125
-188 130 -194 6 -7 33 -47 60 -89 28 -43 53 -78 56 -78 3 0 86 122 184 270 98
149 180 270 184 270 3 0 6 -180 5 -400 l-1 -400 199 0 198 0 0 710 0 710 -212
0 -213 -1 -164 -265 c-91 -146 -168 -267 -172 -270 -7 -4 -56 61 -72 96 -4 8
-36 60 -71 115 -35 55 -95 151 -133 212 l-68 113 -212 0 -213 0 0 -710z"/>
</g>
</svg>
