<?xml version="1.0" encoding="utf-8"?>
<!-- Generator: Adobe Illustrator 18.0.0, SVG Export Plug-In . SVG Version: 6.00 Build 0)  -->
<!DOCTYPE svg PUBLIC "-//W3C//DTD SVG 1.1//EN" "http://www.w3.org/Graphics/SVG/1.1/DTD/svg11.dtd">
<svg version="1.1" xmlns="http://www.w3.org/2000/svg" xmlns:xlink="http://www.w3.org/1999/xlink" x="0px" y="0px"
	 viewBox="0 0 595.3 93.5" style="enable-background:new 0 0 595.3 93.5;" xml:space="preserve">
<style type="text/css">
	.st1{display:inline;}
</style>
<g id="arch">
	<g>
		<g>
			<path d="M31.6,23.1c8.2-0.6,16.3-1.3,24.5-1.8c7.9-0.6,13.4,1.1,16.9,4.5c3,2.8,4.6,6.7,4.6,11.8c0,0,0,0.1,0,0.1
				c0,7.9-4.2,13.4-10.6,16.6C71,60,75.1,65.8,79.2,71.5c-5.5,0.4-11,0.7-16.6,1.1c-3.5-5-6.9-10-10.4-14.9c0,0-0.1,0-0.1,0
				c-2,0.1-4.1,0.3-6.1,0.5c0,5.2,0,10.5,0,15.7c-4.8,0.4-9.6,0.7-14.3,1.1C31.6,57.7,31.6,40.4,31.6,23.1z M55.4,46.2
				c4.9-0.3,7.7-2.9,7.7-6.7c0,0,0-0.1,0-0.1c0-4.1-3-5.9-7.8-5.6c-3.1,0.2-6.3,0.5-9.4,0.7c0,4.1,0,8.3,0,12.4
				C49.1,46.7,52.2,46.4,55.4,46.2z"/>
			<path d="M82.7,19.5c13.9-0.9,27.8-1.7,41.6-2.4c0,4.1,0,8.1,0,12.2c-9.2,0.5-18.3,1-27.4,1.5c0,2.6,0,5.2,0,7.8
				c8.3-0.5,16.6-1,24.9-1.4c0,3.8,0,7.5,0,11.3c-8.3,0.4-16.6,0.9-24.9,1.4c0,2.7,0,5.5,0,8.2c9.3-0.5,18.5-1.1,27.8-1.5
				c0,4.1,0,8.1,0,12.2c-14,0.7-28,1.5-42,2.4C82.7,54,82.7,36.8,82.7,19.5z"/>
			<path d="M130.9,16.8c6.7-0.3,13.3-0.6,20-0.9c18.5-0.8,29.2,9.5,29.2,24.5c0,0,0,0.1,0,0.1c0,15-10.9,26.4-29.5,27.2
				c-6.6,0.3-13.1,0.6-19.7,0.9C130.9,51.3,130.9,34.1,130.9,16.8z M151.1,54.9c8.6-0.4,14.3-5.3,14.3-13.7c0,0,0-0.1,0-0.1
				c0-8.3-5.7-12.9-14.3-12.5c-1.9,0.1-3.9,0.2-5.8,0.3c0,8.8,0,17.6,0,26.3C147.2,55.1,149.1,55,151.1,54.9z"/>
			<path d="M204.3,14c5.1-0.1,10.1-0.3,15.2-0.4c4.1,6.6,8.2,13.2,12.4,19.8c4.1-6.8,8.2-13.5,12.4-20.3c5.1-0.1,10.1-0.1,15.2-0.2
				c0,17.3,0,34.5,0,51.8c-4.8,0.1-9.5,0.1-14.3,0.2c0-9.9,0-19.8,0-29.8c-4.4,6.8-8.8,13.7-13.3,20.5c-0.1,0-0.2,0-0.3,0
				c-4.4-6.6-8.8-13.2-13.2-19.9c0,9.9,0,19.7,0,29.6c-4.7,0.1-9.4,0.2-14.1,0.4C204.3,48.5,204.3,31.3,204.3,14z"/>
			<path d="M284.7,12.4c4.6,0,9.2,0,13.8,0c7.4,17.4,14.7,34.8,22.1,52.3c-5.1,0-10.3-0.1-15.4-0.1c-1.3-3.1-2.5-6.2-3.8-9.3
				c-6.7,0-13.3,0-20,0c-1.2,3.1-2.5,6.2-3.7,9.3c-5,0-10.1,0.1-15.1,0.1C270,47.2,277.4,29.8,284.7,12.4z M297.3,44.1
				c-1.9-4.9-3.9-9.8-5.8-14.7c-2,4.9-3.9,9.8-5.9,14.7C289.6,44.1,293.5,44.1,297.3,44.1z"/>
			<path d="M317,38.9c0,0,0-0.1,0-0.1c0-15.1,11.6-26.9,27.3-26.7c10.6,0.2,17.4,4.7,22,11.2c-3.6,2.7-7.2,5.4-10.8,8.2
				c-3-3.8-6.4-6.2-11.3-6.2c-7.3-0.1-12.4,6-12.4,13.5c0,0,0,0.1,0,0.1c0,7.8,5.1,13.9,12.4,14c5.4,0.1,8.6-2.4,11.7-6.1
				c3.6,2.6,7.2,5.3,10.8,7.9c-4.9,6.6-11.5,11.5-23,11.3C329,65.7,317,54.3,317,38.9z"/>
			<path d="M370.2,13.5c4.8,0.1,9.6,0.2,14.4,0.3c0,6.5,0,12.9,0,19.4c6.1,0.2,12.3,0.3,18.4,0.5c0-6.5,0-12.9,0-19.4
				c4.8,0.2,9.6,0.3,14.4,0.5c0,17.3,0,34.5,0,51.8c-4.8-0.2-9.6-0.3-14.4-0.5c0-6.6,0-13.1,0-19.7c-6.1-0.2-12.3-0.4-18.4-0.5
				c0,6.6,0,13.1,0,19.7c-4.8-0.1-9.6-0.2-14.4-0.3C370.2,48.1,370.2,30.8,370.2,13.5z"/>
			<path d="M423.9,15.2c13.9,0.5,27.8,1.1,41.7,1.8c0,4.1,0,8.1,0,12.2c-9.2-0.5-18.3-0.9-27.5-1.3c0,2.6,0,5.2,0,7.8
				c8.3,0.3,16.6,0.7,24.9,1.1c0,3.8,0,7.5,0,11.3c-8.3-0.4-16.6-0.8-24.9-1.1c0,2.7,0,5.5,0,8.2c9.3,0.4,18.6,0.8,27.8,1.3
				c0,4.1,0,8.1,0,12.2c-14-0.7-28-1.3-42-1.9C423.9,49.7,423.9,32.4,423.9,15.2z"/>
			<path d="M485.2,30.6c-5.2-0.3-10.4-0.6-15.5-0.8c0-4.2,0-8.4,0-12.6c15.1,0.8,30.3,1.7,45.4,2.6c0,4.2,0,8.4,0,12.6
				c-5.2-0.3-10.4-0.7-15.5-1c0,13.1,0,26.1,0,39.2c-4.8-0.3-9.6-0.6-14.4-0.8C485.2,56.8,485.2,43.7,485.2,30.6z"/>
			<path d="M518.9,20.1c13.9,0.9,27.7,1.9,41.6,3c0,4.1,0,8.1,0,12.2c-9.1-0.7-18.3-1.4-27.4-2c0,2.6,0,5.2,0,7.8
				c8.3,0.6,16.6,1.2,24.8,1.8c0,3.8,0,7.5,0,11.3c-8.3-0.6-16.6-1.3-24.8-1.8c0,2.7,0,5.5,0,8.2c9.3,0.7,18.5,1.3,27.8,2.1
				c0,4.1,0,8.1,0,12.2c-14-1.1-28-2.1-42-3C518.9,54.6,518.9,37.4,518.9,20.1z"/>
		</g>
	</g>
</g>
</svg>
